<svg width="205" height="49" viewBox="0 0 205 49" fill="none" xmlns="http://www.w3.org/2000/svg">
<path fill-rule="evenodd" clip-rule="evenodd" d="M128.809 16.2435V15.3768L128.621 15.2405V15.0308L127.608 14.553L124.311 12.9988L124.467 12.6129L124.49 12.5547H124.166L124.123 12.4001L123.857 11.4308H123.451V10.9408H123.69L123.913 10.6453L124.154 10.3314V10.1292H123.246V8.98845C123.678 9.1232 124.189 9.30235 124.853 9.30235C125.179 9.30235 126.08 9.12626 126.294 9.08185L125.754 8.64085L126.321 7.97017C126.256 7.98548 126.011 8.03907 125.734 8.0896C125.408 8.15085 125.036 8.20751 124.851 8.19679C124.404 8.16617 123.955 7.90892 123.245 7.79254H122.968V10.1292H122.073V10.3451L122.569 10.9408H122.775V11.4308H122.371L122.273 11.7983L122.07 12.5547H121.746L121.768 12.6129L121.917 12.9927L119.968 13.988H118.443V15.2359H115.805L116.042 14.429V14.1304L116.264 13.8425C115.238 13.7712 114.21 13.737 113.181 13.7399C111.987 13.7399 110.882 13.7813 109.995 13.8502L110.197 14.112V14.4259L110.2 14.429L110.445 15.2666L108.71 16.3829H108.701L108.71 17.8498L109.164 18.5741L109.352 18.8742V38.5416H116.148V25.9317L116.749 24.9609H116.752L116.754 24.9548L117.396 23.9197L117.398 22.7345L118.479 21.1496L119.143 21.8142L119.81 21.1466L120.477 21.8142L121.144 21.1466L121.811 21.8142L122.44 21.1833L123.499 22.7345V23.9197L124.681 25.8567V38.6855C130.466 38.6855 131.045 38.6855 131.045 35.3566V22.2184C131.045 19.1406 130.426 17.2664 128.809 16.2435Z" fill="white"/>
<path fill-rule="evenodd" clip-rule="evenodd" d="M109.525 12.8196L109.53 12.8258C110.744 12.7186 111.962 12.668 113.181 12.6742C114.546 12.6742 115.79 12.7278 116.728 12.815V11.2777H115.969L113.985 7.51845V7.39289L114.122 7.25508V7.09583H113.881V6.79264H113.367V5.03783C113.5 5.07304 114.514 5.35173 114.866 5.35173C116.46 5.35173 117.266 4.76679 118.069 4.71473C118.544 4.68411 119.904 4.98117 120.104 5.02711L119.319 4.09917L120.066 3.48667C119.767 3.42542 118.521 3.18042 118.069 3.18042C116.601 3.18042 115.667 3.81895 114.867 3.81895C114.514 3.81895 113.5 3.54026 113.368 3.50504V3.47901H112.886V6.79264H112.368V7.09276H112.117V7.25201L112.254 7.38983V7.51539L110.27 11.2746H109.511V12.8166H109.53L109.525 12.8196ZM169.182 32.5927C168.842 32.9601 168.437 33.2622 167.988 33.4839C167.892 33.5329 167.794 33.5711 167.698 33.611C166.877 33.9497 165.968 34.0141 165.108 33.7947L165.098 33.7916C164.608 33.6731 164.151 33.4461 163.76 33.1273C163.37 32.8085 163.055 32.406 162.84 31.9495C162.582 31.396 162.482 30.7819 162.55 30.1748C162.649 29.2438 163.142 28.3848 163.939 27.9178L163.954 27.9116C164.222 27.7585 164.523 27.6483 164.857 27.5901C164.991 27.5686 165.131 27.5518 165.277 27.5472C165.336 27.5467 165.394 27.5503 165.452 27.5579C165.837 27.6039 166.247 27.806 166.446 27.8642C166.662 27.3236 166.263 26.9041 165.582 26.78C165.427 26.7518 165.271 26.7379 165.114 26.7387V26.7356H165.111C164.961 26.7403 164.811 26.7541 164.662 26.777C164.575 26.7908 164.488 26.803 164.399 26.8244C163.966 26.8581 163.42 26.8643 162.97 26.7479C162.838 26.7165 162.709 26.6687 162.588 26.6055C162.328 26.46 162.264 26.1875 162.339 25.8797C162.443 25.4586 162.816 24.9686 163.338 24.6409C163.985 24.3285 164.551 24.2734 164.551 24.2734C164.878 24.255 165.207 24.255 165.547 24.2841C166.186 24.3454 166.798 24.5215 167.36 24.7894C167.372 24.8001 167.389 24.8047 167.402 24.8109C168.081 25.1428 168.681 25.6175 169.16 26.2026C169.639 26.7877 169.986 27.4693 170.178 28.201C170.583 29.7721 170.239 31.4519 169.182 32.5927ZM168.362 19.7684C165.7 19.7684 163.526 20.969 162.065 23.0714V19.9553L157.233 19.7011C157.106 19.6906 156.979 19.6855 156.851 19.6858C156.817 19.6858 156.784 19.6888 156.752 19.6904C156.66 19.6934 156.565 19.6965 156.473 19.7057C156.427 19.7087 156.383 19.7164 156.339 19.721C156.259 19.7304 156.179 19.7421 156.1 19.7562L155.953 19.7868C155.752 19.8305 155.554 19.8899 155.362 19.9645L155.219 20.0211C155.144 20.0517 155.072 20.0885 155 20.1237C154.956 20.1467 154.911 20.1666 154.867 20.1911C154.79 20.2339 154.714 20.2814 154.637 20.3289L154.527 20.3963C154.346 20.5149 154.177 20.6514 154.022 20.8036C153.81 21.0072 153.628 21.2323 153.476 21.4773C152.627 22.8493 152.757 24.7465 154.079 25.8567C154.14 25.9088 154.206 25.9562 154.272 26.0022L154.345 26.0466C154.388 26.0741 154.432 26.1017 154.477 26.1262L154.565 26.1706C154.607 26.1905 154.648 26.212 154.691 26.2288C154.721 26.2441 154.755 26.2548 154.787 26.2671L154.913 26.313L155.014 26.3421L155.141 26.3758C155.295 26.4124 155.452 26.435 155.61 26.4432H155.615L155.716 26.4478L155.792 26.4508L155.843 26.4478C155.969 26.4448 156.095 26.4346 156.221 26.4171L156.335 26.3988L156.464 26.3712C156.502 26.3635 156.54 26.3559 156.577 26.3436C156.619 26.3323 156.661 26.3195 156.703 26.3054C156.738 26.2946 156.775 26.2839 156.81 26.2701C156.853 26.2548 156.894 26.238 156.935 26.2196C156.967 26.2043 157.002 26.1936 157.035 26.1767C157.077 26.1568 157.119 26.1354 157.16 26.1124L157.249 26.0665C157.295 26.0389 157.336 26.0098 157.38 25.9807L157.449 25.9348C157.513 25.8889 157.576 25.8399 157.634 25.7863L157.651 25.771C157.809 25.6286 157.945 25.4635 158.053 25.281C158.081 25.2365 158.11 25.1921 158.135 25.1431C158.154 25.1049 158.17 25.0604 158.187 25.0176C158.309 24.7175 158.37 24.379 158.338 23.9978C158.262 23.1142 157.607 22.2797 156.692 22.1955C156.642 22.1903 156.591 22.1877 156.54 22.1878H156.521C156.447 22.1886 156.373 22.1947 156.3 22.2062C156.239 22.2153 156.178 22.2276 156.118 22.243C156.108 22.2598 155.95 22.2858 155.86 22.4114C155.803 22.4879 155.772 22.6043 155.821 22.7819C155.88 22.7522 155.941 22.7276 156.003 22.7085L156.049 22.6931C156.16 22.6617 156.275 22.6462 156.391 22.6472L156.441 22.6503C156.525 22.6555 156.608 22.6657 156.69 22.6809C156.922 22.7351 157.135 22.8473 157.312 23.007C157.361 23.0544 157.407 23.1056 157.449 23.1602C157.673 23.4765 157.771 23.865 157.725 24.2498C157.679 24.6347 157.491 24.9886 157.198 25.2427C157.151 25.2825 157.1 25.3192 157.05 25.3529L156.995 25.3866C156.91 25.4394 156.822 25.4855 156.73 25.5244L156.658 25.552C156.626 25.564 156.593 25.5752 156.56 25.5857L156.488 25.6086C156.455 25.6178 156.42 25.626 156.386 25.6331L156.316 25.6485C156.279 25.6547 156.241 25.6598 156.204 25.6638L156.143 25.6714C156.019 25.6588 155.895 25.6577 155.771 25.6684L155.717 25.6607C155.683 25.6564 155.649 25.6512 155.615 25.6454L155.574 25.6377L155.505 25.6209C155.464 25.6101 155.423 25.5983 155.382 25.5857C155.255 25.5422 155.132 25.4873 155.015 25.4218L154.946 25.3805C154.911 25.3583 154.876 25.3348 154.842 25.31C154.821 25.2932 154.799 25.2794 154.78 25.261C154.743 25.2335 154.709 25.2013 154.676 25.1692L154.625 25.1232C154.284 24.7609 154.065 24.3008 153.999 23.8075C153.933 23.3142 154.023 22.8126 154.256 22.3731L154.258 22.3685C154.317 22.2619 154.385 22.1601 154.46 22.0638C154.855 21.6672 155.355 21.5156 155.818 21.4773C156.553 21.4161 157.195 21.6381 157.195 21.6381C158.153 21.9306 158.889 22.8493 158.982 23.9396C158.982 23.9396 159.781 28.5532 155.616 29.0907V44.7232H162.065V37.1053C163.226 38.344 164.875 38.9075 166.862 38.9075C171.961 38.9075 175.335 34.1408 175.335 28.5502C175.335 23.4465 173.236 19.7684 168.362 19.7684Z" fill="white"/>
<path fill-rule="evenodd" clip-rule="evenodd" d="M166.436 28.051C166.179 28.786 166.406 29.5623 167.046 30.6756L168.086 32.3232C168.354 32.0462 168.557 31.7127 168.68 31.347C168.803 30.9814 168.843 30.593 168.796 30.2101C168.643 28.9743 167.592 28.0096 166.436 28.051ZM164.037 29.2163C163.806 29.7951 163.873 30.3846 164.141 30.8792L165.209 29.8931C165.886 29.2132 166.201 28.6972 166.157 28.1168C165.331 27.8626 164.386 28.3542 164.037 29.2163ZM94.3658 22.517V23.8661H92.7855V21.8908L93.5749 20.7684L94.3658 21.8908V22.517ZM82.8965 23.0285H80.9995V20.8311C80.9995 20.3059 81.4233 19.6322 81.948 19.6322C82.4712 19.6322 82.8965 20.3059 82.8965 20.8311V23.0285ZM81.1724 16.0812H81.6726V14.8225H81.1724V16.0827V16.0812ZM82.1989 16.0812H82.6992V14.8225H82.1989V16.0827V16.0812ZM91.0108 29.3189V38.6932C96.2613 38.6932 97.0323 38.6932 97.0323 35.3106V24.5919L97.0568 24.5751V23.0515H95.4719V21.8785H96.1557L96.1297 21.8448H96.1557C96.1557 21.8448 95.1919 20.6489 95.0328 19.8649C95.0179 19.798 95.0097 19.7298 95.0083 19.6613V17.7196H94.4759V18.5128H92.5652V17.7196H92.0328V19.6306C92.0209 19.8227 91.9699 20.0103 91.8829 20.1819C91.7758 20.4177 91.6228 20.6642 91.4621 20.8955C91.098 21.413 90.6942 21.8448 90.6942 21.8448H91.2449L91.2143 21.8755H91.3765V23.0499H89.4106V24.4954H87.9664V25.9394H86.5207V27.3864L85.0765 29.4735V23.027H84.6834V21.8816H84.6895V21.851H85.7558L83.6981 16.8208V16.8131H83.2285V14.821H83.6874C83.6874 13.3464 83.2009 11.0097 82.3565 10.411V8.68068H81.5196V10.4585C80.8205 11.1276 80.4105 13.3831 80.4105 14.8225H80.6461V16.8101H80.1764L78.1142 21.8525H79.1805V21.8494H79.1897V23.027H78.7414V24.036L78.7475 24.0452V25.9011L78.7445 25.8981V37.7714C80.5069 38.5814 82.5263 38.8739 84.3988 39.0224L91.0078 29.3173L91.0108 29.3189ZM192.598 29.3663C192.815 29.3663 193.185 29.3418 193.526 29.325C193.887 29.3066 194.215 29.2959 194.286 29.3311C194.424 29.4016 194.632 29.642 194.597 29.9543C194.59 30.0429 194.586 30.1318 194.586 30.2208C194.58 30.6266 194.595 31.2299 194.459 31.2299C194.286 31.2299 194.08 31.3677 194.115 31.6096C194.149 31.8515 193.907 31.7122 193.907 31.7122C193.907 31.7122 193.564 31.2375 193.234 30.7582L192.616 29.766C192.539 29.5195 192.598 29.3663 192.598 29.3663ZM191.175 18.643C191.144 18.6571 191.112 18.6679 191.078 18.6751C191.224 18.8589 190.809 18.9171 190.313 18.9967C190.151 19.0227 189.955 19.3504 189.747 19.4255C189.719 19.4372 189.689 19.4427 189.658 19.4417C189.627 19.4406 189.597 19.433 189.57 19.4193C189.41 19.342 189.285 19.2061 189.221 19.0396C189.221 19.0396 189.197 19.1008 189.178 19.1851C189.158 19.2666 189.151 19.3509 189.158 19.4346L189.14 19.4101C189.126 19.6414 189.239 19.6582 189.258 19.6842C189.273 19.7072 189.018 19.574 188.819 19.4668L188.591 19.3443L188.759 19.5296L189.053 19.8542C189.053 19.8542 188.802 19.8741 188.444 19.8649C188.152 19.8587 187.86 19.831 187.572 19.7822C187.092 19.695 187.612 20.0349 188.046 20.2875C188.291 20.43 188.507 20.5448 188.507 20.5448C188.507 20.5448 187.817 20.3519 187.561 20.4009C187.648 20.4376 188.002 20.7362 188.002 20.7362C188.002 20.7362 186.911 20.6581 186.775 20.6581C186.639 20.6581 187.668 21.0271 187.785 21.047C187.901 21.0654 187.3 21.2614 186.581 21.0271C185.862 20.7944 186.697 21.9214 186.775 22.0179C186.853 22.1159 187.203 22.8156 185.959 22.5048C185.959 22.5048 185.029 20.6183 185.039 20.4667C185.591 19.6689 187.57 16.735 188.216 16.6003C189.161 16.4028 190.382 16.1363 190.382 16.1363C190.382 16.1363 190.765 16.3737 191.438 16.438L191.175 18.643ZM183.504 16.7718C183.443 16.7733 183.402 16.8254 183.369 16.8989C183.275 17.1209 183.252 17.5573 182.963 17.5635C182.727 17.5711 182.543 17.196 182.355 16.9203C182.236 16.7488 182.113 16.6156 181.977 16.6508C181.837 16.6845 181.711 16.4717 181.61 16.2022C181.5 15.8887 181.414 15.5672 181.353 15.2406C181.353 15.2406 181.399 14.3126 181.939 14.2805C182.479 14.2452 182.288 14.2805 182.288 14.2805L182.527 14.9588L182.854 14.9542L182.866 14.2651C182.866 14.2651 183.33 14.3417 183.428 14.7551C183.492 15.0155 183.604 15.7658 183.611 16.2711C183.617 16.5574 183.591 16.7672 183.504 16.7718ZM180.054 15.1517L179.08 14.7107L179.141 15.6724L178.48 14.9067V14.9037L178.22 14.1993L177.899 13.3311L177.155 11.316C177.674 11.9285 178.275 12.5746 178.826 13.1718L179.295 13.6833L179.299 13.6879C179.451 13.8563 179.598 14.0186 179.731 14.1717C180.14 14.6403 180.441 15.0277 180.527 15.2696C180.538 15.2941 180.542 15.3217 180.55 15.3493C180.616 15.579 180.625 15.8454 180.602 16.1149L180.054 15.1517ZM201.526 23.5001C201.328 23.1602 201.177 23.2612 200.7 22.465C200.557 22.2076 200.435 21.9387 200.337 21.6611C200.108 21.0639 199.863 20.3656 199.424 19.8083C199.143 19.4603 198.899 19.0854 198.692 18.6889C198.549 18.4102 198.471 18.1989 198.42 18.0657C198.318 17.7886 198.523 17.4685 198.454 17.0551C198.383 16.6416 198.214 16.51 197.941 16.5314C197.828 16.7014 197.804 17.0474 197.804 17.0474C197.804 17.0474 197.566 16.7473 197.219 16.4931C196.867 16.2374 197.06 16.7182 196.898 16.9908C196.865 17.0475 196.837 17.107 196.814 17.1684C196.719 17.4073 196.756 17.5512 196.756 17.5512C196.756 17.5512 196.159 17.2373 195.746 17.4716C195.296 17.7273 194.929 17.5527 194.704 17.3751C194.496 17.4394 194.816 17.8085 194.816 17.8085C194.816 17.8085 194.276 17.8238 193.999 17.6492C193.775 17.6798 193.951 17.9524 193.951 17.9524C193.951 17.9524 193.396 18.2234 192.914 18.1208C192.885 18.3107 192.382 18.3765 192.873 18.4286C192.807 18.6537 192.503 18.6828 192.175 18.6369C192.112 18.6249 192.048 18.6131 191.984 18.6016V18.6032L192.088 18.6231L191.644 18.5511L191.897 16.4518C191.999 16.4487 192.105 16.4426 192.217 16.4288C193.364 16.2986 192.538 14.8669 192.538 14.8669C192.538 14.8669 192.37 14.8547 192.091 14.8409L192.218 13.7874C192.448 13.7614 192.616 13.6588 192.63 13.5225C192.64 13.3969 192.516 13.276 192.327 13.2025C192.602 13.0156 192.969 12.6956 193.009 12.2944C193.07 11.6482 192.382 9.68671 192.382 9.68671C192.382 9.68671 191.332 11.4813 191.271 12.1275C191.231 12.5272 191.534 12.9131 191.767 13.1489C191.568 13.1841 191.423 13.279 191.41 13.4046C191.397 13.5424 191.543 13.6741 191.762 13.7445L191.634 14.821C190.43 14.775 188.361 14.7536 187.573 15.092C186.668 15.481 184.928 15.8285 184.248 15.9572L184.07 15.4304C183.906 14.9343 183.691 14.2468 183.626 13.8624C183.616 13.8023 183.609 13.7413 183.608 13.6802C183.6 13.4363 183.521 13.2002 183.379 13.0019L183.36 12.9758C183.203 12.8956 183.065 12.7828 182.955 12.645C182.845 12.5072 182.766 12.3475 182.722 12.1765C182.536 11.8044 182.389 10.7555 182.389 10.7555C182.389 10.7555 182.262 11.8197 182.046 12.1765C181.981 12.2979 181.888 12.4023 181.775 12.4812C181.583 12.6037 181.39 12.8304 181.248 13.0233L181.194 13.0968L181.189 13.1029C181.132 13.1844 181.078 13.2676 181.026 13.3525L180.955 13.9497L180.87 14.651C180.727 14.4328 180.576 14.2208 180.415 14.0156C180.25 13.8006 180.079 13.5892 179.904 13.3816L179.901 13.377C179.821 13.2814 179.741 13.1865 179.66 13.0922C178.482 11.7202 177.059 10.2946 176.949 9.97611C176.762 9.42793 177.108 8.34686 177.108 8.34686C177.108 8.34686 175.252 8.76489 176.479 10.4615C176.513 10.509 176.549 10.5565 176.586 10.6024L177.62 13.4046L177.704 13.6312L178.102 14.723L178.154 15.2712L178.186 16.1226L177.397 15.5774L177.596 16.6325L176.653 16.2389L176.863 17.1975C176.863 17.1975 177.594 18.055 177.789 18.2923C177.369 18.8114 176.982 19.1039 177.155 19.5219C177.304 19.8848 178.422 21.1221 178.257 22.194V38.5416H184.809V31.8822H186.74L188.214 34.9891C189.576 37.828 190.448 38.7743 193.171 38.7743C194.874 38.7743 196.419 38.4221 197.228 37.5493C197.259 37.6565 197.354 37.8066 197.666 37.7836C198.148 37.7484 198.838 37.681 199.113 37.5417C199.388 37.4039 198.942 37.0593 198.767 36.9904C198.593 36.9066 198.457 36.7585 198.39 36.577C198.328 36.4269 198.012 36.2524 197.816 36.185C197.789 36.1757 197.762 36.168 197.735 36.162C197.562 36.1283 195.735 34.4378 195.425 34.0581C195.328 33.9375 195.236 33.8128 195.149 33.6845C195.015 33.4879 194.886 33.2883 194.761 33.0857C194.903 32.9127 195.01 32.7565 195.047 32.6432C195.056 32.6123 195.065 32.5811 195.073 32.5498C195.207 32.4732 195.295 32.3477 195.333 32.1256C195.357 31.9924 195.367 31.8271 195.356 31.6081C195.347 31.382 195.35 31.1555 195.365 30.9297C195.4 30.3708 195.489 29.792 195.562 29.5026C195.666 29.0892 195.287 28.4675 194.839 28.054C194.498 27.7386 193.564 27.7034 193.014 27.6896C192.867 27.685 192.746 27.6835 192.672 27.6774L192.633 27.6743C192.365 27.6406 192.388 27.319 192.327 27.3941C192.4 27.2915 192.833 26.6131 192.804 25.7756C192.77 24.8109 193.044 24.327 193.286 24.0851C193.31 24.0621 193.341 24.0284 193.375 23.9932C193.685 23.6425 194.392 22.7544 194.736 22.5691C195.113 22.3593 195.425 21.9811 195.562 21.9107C195.7 21.8433 195.907 22.0485 196.011 22.0485C196.067 22.0485 196.154 22.2031 196.327 22.4053C196.473 22.5737 196.678 22.7743 196.976 22.9473C197.631 23.3256 198.907 24.0161 199.079 24.2918C199.251 24.5674 199.246 25.2457 199.493 25.2932C200.008 25.3912 200.492 25.3958 200.802 25.0513C201.113 24.7067 201.131 24.3591 201.338 24.2213C201.543 24.0835 201.722 23.837 201.526 23.4986V23.5001ZM27.4562 16.4763C27.3846 16.7133 27.3369 16.957 27.314 17.2036L27.3124 17.2021C27.2956 17.3598 27.3013 17.5191 27.3293 17.6752C27.3323 17.6798 27.3323 17.6844 27.3339 17.6906C27.3874 17.9662 27.5128 18.1576 27.6765 18.1698C27.6811 18.1729 27.6827 18.1698 27.6872 18.1698C27.6872 18.1698 27.6903 18.1698 27.6903 18.1729L27.6918 18.1698C27.929 18.1729 28.1508 17.7931 28.1875 17.3077C28.215 16.9617 28.1416 16.66 28.0146 16.4977C28.4552 16.6018 28.6618 16.9295 28.7291 17.3506C28.8239 17.9371 28.4889 18.4914 27.8081 18.6032C27.1273 18.7134 26.6898 18.251 26.5949 17.6615C26.497 17.0765 26.7785 16.5896 27.4562 16.4763ZM26.5674 33.3261C25.5851 33.3367 24.6063 33.2068 23.6607 32.9403C22.368 32.5575 21.3139 31.8975 20.5291 30.9757C19.4949 29.7614 18.9365 28.0939 18.9365 26.019C18.9365 25.6285 18.9579 25.2549 19.0038 24.8966C19.0742 24.2964 19.2058 23.7482 19.3909 23.2459C19.5286 22.8692 19.6968 22.5201 19.8942 22.2016C20.3884 21.3668 21.0326 20.6306 21.7943 20.0303C22.394 19.5204 22.9967 18.9921 22.9967 18.0473C23.344 18.0473 23.7433 18.8558 22.7933 19.917C22.747 19.9675 22.705 20.0218 22.6678 20.0793C22.4031 20.4851 22.4368 20.9475 22.7596 21.2675C22.7596 21.2675 22.8162 20.0257 23.959 19.943C23.9911 19.9476 24.0202 19.9537 24.0508 19.9614C23.9483 20.0686 23.5643 20.4943 23.7968 20.7285C23.7968 20.7285 24.2191 19.9798 24.9901 20.3411C25.7627 20.701 26.1589 21.8923 26.1589 23.0744V23.8156C26.4312 23.8186 26.8382 23.8232 27.2589 23.8247H27.2604C27.2604 23.8247 27.3247 23.8293 27.4318 23.8247C27.8433 23.814 28.8974 23.6839 29.3211 22.7789C29.3211 22.7789 29.4313 22.5446 29.416 22.4466L29.2737 22.3624C29.2737 22.3624 27.8142 21.8892 27.3155 20.2784C27.3155 20.2784 27.7087 20.7025 28.9249 20.5708C30.1427 20.4422 30.5236 20.4284 30.8265 20.6489C31.1248 20.8694 31.5119 20.6903 31.7092 20.4836C31.9466 20.2857 32.0971 20.0026 32.1284 19.695V19.649C32.1437 19.3994 32.1514 19.1514 32.1498 18.9232V18.8191C32.1478 18.6197 32.1376 18.4205 32.1192 18.2219H31.0437C30.4364 17.885 29.8428 17.5788 29.7571 17.3828C29.6409 17.1225 29.9117 16.4946 30.0815 16.147C30.0963 16.1037 30.1169 16.0625 30.1427 16.0246L30.158 15.997L30.2039 15.9112C30.2344 15.8347 30.239 15.7688 30.2069 15.7168C30.158 15.6402 30.0325 15.5836 29.8199 15.5376C29.5215 15.4733 29.0549 15.4258 28.3833 15.3615C28.1218 15.3371 27.8615 15.3013 27.6031 15.2543C27.3313 15.1715 27.0568 15.098 26.78 15.0338C26.4676 14.9196 26.1689 14.7707 25.8897 14.5898C25.2165 14.158 24.496 13.4735 23.5903 12.371C22.3144 10.8106 22.1293 9.66068 22.1293 9.66068C22.1293 9.66068 20.8825 10.4079 22.6265 13.7736C21.9977 14.1258 21.8187 12.7063 20.2002 12.9866C19.8952 13.0408 19.6083 13.1694 19.3647 13.3608C19.1212 13.5523 18.9284 13.8008 18.8034 14.0845C18.8845 14.0431 21.2405 12.8288 20.9987 14.8516C20.9681 14.8562 20.9375 14.8654 20.9039 14.8715C18.6504 15.3462 16.7641 16.2956 15.3184 17.6538C15.2465 17.7212 15.1777 17.7916 15.1058 17.8621C15.0431 17.8891 14.9764 17.9057 14.9084 17.911C14.428 17.9677 13.2103 15.6448 12.0782 14.8332C9.07202 12.6742 4.59415 12.8579 3.16986 13.6205C3.16986 13.6205 6.56613 14.0845 7.17807 16.539C7.62173 18.3122 5.99703 19.479 5.90829 19.5449C6.03068 19.5097 8.55035 18.8344 9.45755 20.1405C10.5667 21.7407 8.6452 23.7344 8.55035 23.8293C8.66202 23.7742 10.8925 22.6916 11.2337 23.788C11.4081 24.3469 11.7309 24.7787 12.0721 25.0605C12.0512 25.3796 12.0405 25.6992 12.0399 26.019C12.0399 29.3571 12.8446 32.239 14.4265 34.4256C16.4612 37.2431 19.7856 38.9076 24.3292 38.9076C25.01 38.9076 25.6709 38.8723 26.3027 38.8004C30.1977 38.3731 33.0249 36.652 33.0249 33.8391V32.0766C32.4237 32.3063 31.8133 32.5085 31.1921 32.68C29.7342 33.0857 28.215 33.3261 26.5674 33.3261Z" fill="white"/>
<path fill-rule="evenodd" clip-rule="evenodd" d="M31.4124 22.2766C29.546 22.1296 31.0438 20.8066 32.0519 21.9291C32.0519 21.9291 31.4476 20.7837 30.4517 21.2951C30.1427 21.4528 29.9851 21.6749 29.9621 21.9076V21.9L29.9606 21.9153C29.9514 22.0408 29.9178 23.0071 30.8433 23.3822C31.8347 23.7849 31.9907 24.5215 31.9907 24.5215C31.9907 24.5215 32.2967 23.3485 31.6006 22.9688H31.6373C33.2437 22.9504 34.3039 24.3668 34.3039 24.3668C34.3039 24.3668 33.2789 22.4221 31.4124 22.2766ZM57.065 20.3748C56.7621 20.3748 56.5158 20.1696 56.5158 19.9155C56.5158 19.6597 56.7605 19.453 57.0665 19.453C57.3694 19.453 57.6142 19.6597 57.6142 19.9139C57.6142 20.1696 57.3694 20.3748 57.065 20.3748ZM55.8748 21.0103C55.6652 21.0103 55.4954 20.8679 55.4954 20.6933C55.4954 20.5172 55.6636 20.3748 55.8748 20.3748C56.0843 20.3748 56.2542 20.5172 56.2542 20.6933C56.2542 20.8679 56.0843 21.0103 55.8748 21.0103ZM53.2648 25.8858L53.2342 25.9042C52.2857 26.4631 50.0873 27.9714 46.9955 29.6695L46.9787 29.838L46.9664 29.9574C46.9553 30.0603 46.942 30.1629 46.9267 30.2652L46.9098 30.3816C46.8925 30.483 46.8731 30.5841 46.8517 30.6847L46.8303 30.7904C46.8058 30.8983 46.7782 31.0056 46.7477 31.112L46.7293 31.1809C46.6571 31.4295 46.5671 31.6725 46.4601 31.9082L46.4157 31.997C46.3776 32.0762 46.3373 32.1543 46.2948 32.2313L46.2275 32.3446C46.1893 32.4059 46.151 32.4702 46.1082 32.5284C46.0822 32.5682 46.0531 32.6049 46.024 32.6432C45.9549 32.7349 45.8808 32.8228 45.8022 32.9066C45.6852 33.0314 45.5561 33.1443 45.4167 33.2435C45.329 33.3061 45.237 33.3624 45.1413 33.4119C45.0996 33.436 45.0567 33.4579 45.0128 33.4777C44.9562 33.5038 44.8981 33.5237 44.8399 33.5451C44.794 33.5604 44.7527 33.5788 44.7068 33.5911C44.6426 33.6094 44.5753 33.6217 44.508 33.6339C44.4651 33.6431 44.4223 33.6538 44.3779 33.6615C44.2877 33.6737 44.1943 33.6768 44.0995 33.6799L44.0307 33.6845C43.0164 33.6845 42.2667 33.1179 41.7726 32.2451C41.586 31.9116 41.4387 31.5575 41.3335 31.1901C42.6924 30.545 44.0394 29.8752 45.3739 29.1811C45.8435 28.9361 46.3117 28.6834 46.7783 28.4338C46.8517 28.3955 46.9251 28.3542 46.997 28.3144L47.0001 28.3128C48.7101 27.3923 50.3956 26.4267 52.0547 25.4172C52.1786 25.3407 52.529 25.1355 52.9267 24.9073L52.9298 24.9058L53.6366 24.497C53.9579 24.3086 54.2286 24.1524 54.3342 24.0835C54.3342 24.0835 55.0976 24.791 53.2648 25.8858ZM41.0429 28.9024C41.0444 28.714 41.0505 28.5303 41.0597 28.3511L41.0673 28.2332C41.0765 28.1 41.0888 27.9698 41.1025 27.8412C41.1056 27.8274 41.1056 27.8121 41.1071 27.7983C41.1383 27.5455 41.1853 27.2949 41.2479 27.048L41.2815 26.9255C41.2999 26.8627 41.3198 26.8 41.3412 26.7387L41.381 26.6269C41.4146 26.5412 41.4483 26.4585 41.4865 26.3789L41.5171 26.3207C41.5538 26.2487 41.5921 26.1798 41.6334 26.114C41.6487 26.0864 41.6686 26.0604 41.6869 26.0328C41.7231 25.9787 41.7613 25.9261 41.8017 25.8751L41.8583 25.8062C41.9201 25.734 41.9865 25.666 42.0571 25.6025C42.1241 25.5432 42.1946 25.488 42.2683 25.4371L42.3371 25.3927C42.3983 25.3545 42.4595 25.3192 42.5253 25.2856L42.5972 25.2488C42.7879 25.1609 42.9881 25.0952 43.1938 25.0528L43.2841 25.0375C43.3698 25.0222 43.457 25.0069 43.5487 24.9977C43.5824 24.9946 43.613 24.99 43.6467 24.9885C43.8992 24.9679 44.1529 24.9679 44.4055 24.9885C44.5157 24.9969 44.6255 25.0107 44.7344 25.0298C44.791 25.0406 44.8476 25.0497 44.9011 25.062L45.0143 25.0926C45.126 25.1217 45.2285 25.1585 45.331 25.1998C45.6624 25.3415 45.9597 25.5524 46.203 25.8184C46.205 25.8173 46.207 25.8162 46.2092 25.8154C47.049 25.3101 50.1164 23.4526 51.2026 22.589L51.351 22.4757L51.4917 22.3685L51.5132 22.3532C51.6004 22.2889 51.683 22.2322 51.7625 22.1802L51.7931 22.1618C51.8681 22.1113 51.94 22.0684 52.0073 22.0286L52.0379 22.0102C52.1 21.975 52.1633 21.9418 52.2276 21.9107L52.2567 21.8954C52.3648 21.8455 52.4763 21.803 52.5902 21.7683L52.6085 21.7637C52.6503 21.7526 52.6927 21.7439 52.7355 21.7376L52.7477 21.7346C52.7832 21.7298 52.819 21.7273 52.8548 21.7269H52.861C52.8979 21.7271 52.9348 21.7307 52.9711 21.7376H52.9788C53.0102 21.7445 53.0409 21.7542 53.0705 21.7667C53.092 21.7759 53.1125 21.7872 53.1317 21.8004L53.1379 21.805C53.1542 21.8159 53.1696 21.8282 53.1838 21.8418L53.1883 21.8464C53.1995 21.8588 53.2098 21.8721 53.2189 21.8862C53.222 21.8862 53.222 21.8877 53.2235 21.8892L53.2434 21.9229L53.2449 21.926C53.25 21.9377 53.2551 21.9495 53.2602 21.9612C53.2602 21.9612 53.0063 22.1235 52.9604 22.145C52.9604 22.145 52.659 22.3364 51.7365 22.8999H51.735C51.2026 23.2245 50.4606 23.6731 49.4524 24.2795L46.5794 25.967L46.5962 25.9547L46.4677 26.0313L46.4019 26.0711L46.1113 26.2411C45.1138 26.777 41.9348 28.4767 41.0413 28.9361V28.9039M53.2954 23.2582C53.3138 23.2816 53.3307 23.3061 53.3459 23.3317C53.4928 23.566 53.531 23.8048 52.6728 24.3377H52.6697L52.6575 24.3454C52.0211 24.7374 51.4107 24.9732 51.0695 24.9793C51.2087 24.9257 51.3663 24.8461 51.5285 24.7466C51.9629 24.4771 51.9446 24.3591 51.8711 24.2397C51.8622 24.2254 51.8525 24.2116 51.8421 24.1984L51.8329 24.1876L51.8084 24.1647L51.7901 24.1555C51.7824 24.1509 51.7748 24.1448 51.764 24.1417C51.7579 24.1417 51.7488 24.1417 51.7426 24.1386C51.7319 24.1371 51.7197 24.1341 51.7059 24.1341L51.6723 24.1386C51.6583 24.1385 51.6443 24.1406 51.631 24.1448L51.5881 24.1586L51.5346 24.1769C51.5122 24.1863 51.4903 24.1965 51.4688 24.2076L51.4137 24.2336C51.2113 24.3411 51.0224 24.4721 50.8507 24.6241C51.0098 24.3224 51.4933 23.8829 52.1312 23.4909L52.1618 23.4726L52.1633 23.4695C52.296 23.3883 52.4329 23.3142 52.5733 23.2475C52.6684 23.2047 52.7666 23.1694 52.8671 23.1418L52.9068 23.1326C52.9351 23.1272 52.9638 23.1242 52.9925 23.1234L53.0124 23.1219H53.0323C53.066 23.125 53.0935 23.128 53.1195 23.1372C53.1302 23.1372 53.1394 23.1433 53.1501 23.1464C53.1693 23.1544 53.1877 23.1642 53.2052 23.1755L53.2312 23.1939L53.2771 23.2367L53.2939 23.2582M59.9472 17.6676H59.938C59.858 17.6635 59.778 17.6609 59.6979 17.6599H59.6565C59.5724 17.6599 59.4852 17.6615 59.3965 17.6661L59.3552 17.6676C59.2695 17.6722 59.1808 17.6829 59.0905 17.6921L59.0339 17.6967C58.9499 17.7078 58.8663 17.7211 58.783 17.7365L58.6973 17.7503C58.6208 17.7656 58.5398 17.7855 58.4617 17.8054L58.3501 17.8314C58.2741 17.8543 58.1986 17.8788 58.1236 17.9049C58.0808 17.9202 58.038 17.931 57.9936 17.9463C57.9248 17.9708 57.8559 18.0029 57.7871 18.032C57.7351 18.0535 57.6846 18.0718 57.6326 18.0963C57.5698 18.127 57.5056 18.1622 57.4429 18.1959C57.3847 18.2265 57.3266 18.2525 57.2669 18.2877C57.1423 18.3593 57.0213 18.437 56.9043 18.5205C55.9375 19.2096 54.0649 20.9781 54.0649 20.9781C53.9162 20.8552 53.7338 20.78 53.5417 20.7622C53.4928 20.7561 53.4423 20.7561 53.3918 20.7561L53.323 20.7607C53.2924 20.7622 53.2587 20.7638 53.2266 20.7684L53.1547 20.7806C53.0652 20.794 52.9771 20.8155 52.8916 20.8449C52.8086 20.8692 52.7274 20.8989 52.6483 20.9337C52.6153 20.9478 52.5827 20.9626 52.5504 20.9781L52.4815 21.0088L52.3745 21.0639L52.3179 21.0945C52.2643 21.1236 52.2108 21.1527 52.1588 21.1849C51.5132 21.5677 50.993 22.073 50.9624 22.0944L50.8614 22.0102L50.8171 21.9719C50.7244 21.8938 50.63 21.8178 50.534 21.7438L50.479 21.7024C50.3832 21.6303 50.2857 21.5604 50.1868 21.4926L50.1256 21.4513C50.0249 21.3849 49.9229 21.3205 49.8196 21.2584C49.6934 21.1822 49.5654 21.1092 49.4356 21.0394L49.3714 21.0042C49.2603 20.9467 49.1481 20.8916 49.0348 20.8388L48.969 20.8082C48.7099 20.6898 48.4455 20.5836 48.1765 20.4897L48.1154 20.4667C47.9846 20.4222 47.853 20.3804 47.7207 20.3411L47.664 20.3258C47.3619 20.2361 47.0555 20.161 46.7461 20.1007L46.7125 20.0931C46.5499 20.0609 46.3867 20.0324 46.2229 20.0073H46.2122C45.4902 19.8985 44.7609 19.8447 44.0307 19.8466C43.457 19.8466 42.9062 19.8772 42.3784 19.9354C42.3539 19.9384 42.3325 19.943 42.308 19.9446C42.1619 19.9617 42.016 19.9811 41.8705 20.0027L41.7496 20.0226C41.6249 20.0427 41.5004 20.0646 41.3764 20.0885L41.228 20.1191C41.1178 20.1421 41.0092 20.1651 40.9006 20.1911L40.7323 20.234C40.5734 20.2754 40.4153 20.3198 40.258 20.3672L39.998 20.4514C39.7848 20.5222 39.5746 20.6014 39.3677 20.6887C39.2277 20.7465 39.0895 20.8083 38.9531 20.874L38.7695 20.9659C38.5666 21.0689 38.3681 21.1803 38.1744 21.2997L38.0382 21.3855C37.9617 21.4345 37.8852 21.485 37.8118 21.5355L37.7001 21.6167C37.6219 21.6727 37.5449 21.7304 37.4691 21.7897L37.3804 21.8617C37.2999 21.9263 37.2209 21.9927 37.1433 22.0607L37.0821 22.1159C36.9979 22.1924 36.9138 22.269 36.8342 22.3471L36.8052 22.3762C36.7149 22.4681 36.6262 22.5599 36.5405 22.6549C36.4946 22.7054 36.4518 22.759 36.4059 22.8111L36.2896 22.9489C36.2407 23.0086 36.1932 23.0714 36.1458 23.1326L36.054 23.2536L35.9133 23.4557L35.8337 23.5721C35.7878 23.6425 35.7419 23.716 35.6991 23.7895L35.6287 23.9028L35.5017 24.1341L35.4405 24.2474C35.3994 24.3278 35.3596 24.409 35.3212 24.4908C35.3029 24.5291 35.283 24.5659 35.2661 24.6041C35.2279 24.6884 35.1912 24.7726 35.156 24.8583L35.107 24.9732C35.072 25.0609 35.0383 25.1493 35.0061 25.2381L34.9648 25.3545C34.8408 25.7132 34.7377 26.0787 34.6557 26.4493L34.6312 26.5718C34.6097 26.6736 34.5898 26.7757 34.5716 26.8781C34.5455 27.0235 34.5225 27.1695 34.5027 27.316L34.4874 27.4385C34.4736 27.548 34.4614 27.6578 34.4507 27.7677L34.44 27.8871C34.4308 28.0005 34.4217 28.1138 34.4155 28.2286C34.4078 28.3587 34.4016 28.4889 34.3972 28.6191L34.3941 28.7615L34.3895 29.0096C34.3895 29.2515 34.3972 29.4888 34.411 29.7246L34.4171 29.8303C34.4324 30.0585 34.4507 30.282 34.4767 30.5041L34.4737 30.4933L34.4874 30.6005C34.4874 30.6143 34.4905 30.6266 34.492 30.6388C34.5159 30.8211 34.5439 31.0029 34.5762 31.1839L34.5945 31.2758C34.751 32.1371 35.0168 32.9748 35.3855 33.7687C35.6951 34.4274 36.0829 35.0464 36.5405 35.6123L36.5619 35.6399C36.7042 35.8144 36.8526 35.9829 37.0086 36.1452L37.0163 36.1513C37.3268 36.4759 37.6634 36.773 38.0214 37.044L38.0673 37.0777C38.2356 37.2048 38.41 37.3227 38.5874 37.436L38.6655 37.485C38.8429 37.5953 39.0235 37.6994 39.2116 37.7974L39.2835 37.8357C39.4778 37.9352 39.6767 38.0301 39.8802 38.1174H39.8832C40.8025 38.5065 41.7753 38.7543 42.7685 38.8524L42.7884 38.854C43.1923 38.8968 43.6054 38.9213 44.0307 38.9213C49.786 38.9213 53.6718 34.9554 53.6718 29.0111L53.6687 28.8932C53.6649 28.485 53.642 28.0772 53.5999 27.6712L53.5846 27.5089C53.5604 27.306 53.5303 27.1038 53.4943 26.9026C53.4882 26.8597 53.479 26.8199 53.4714 26.7785C53.4399 26.6077 53.4042 26.4377 53.3643 26.2686L53.349 26.1997C54.0435 25.8475 54.5499 25.5106 54.9155 25.2029C55.5795 24.6455 55.7876 24.1785 55.8365 23.8646C55.8793 23.5859 55.7998 23.4251 55.7998 23.4251C55.7998 23.4251 58.0869 22.2414 59.0538 21.5539C60.9906 20.1804 61.0487 17.983 61.0502 17.8575C60.6917 17.7492 60.3213 17.6854 59.9472 17.6676ZM147.257 17.9233C147.649 18.0106 148.033 18.0596 148.405 18.0749C149.35 16.7764 150.628 15.7581 150.628 15.7581L148.766 15.6754L148.249 13.4965L146.852 15.2467L145.132 14.5255C145.132 14.5255 145.854 15.9924 146.157 17.5696C146.499 17.7151 146.867 17.8345 147.259 17.9218M146.242 18.104C146.275 18.3796 146.292 18.6537 146.286 18.9186C146.748 19.0776 147.227 19.185 147.713 19.2386C147.82 18.9967 147.952 18.7548 148.1 18.5205C147.464 18.4703 146.838 18.3301 146.242 18.104ZM142.151 34.6093C141.214 34.5466 140.702 33.7978 140.766 32.8606C140.823 32.0368 141.396 31.36 142.454 31.2835L145.131 31.1303C144.932 32.9571 143.759 34.7196 142.151 34.6093ZM151.751 32.5666C151.697 30.7475 151.429 29.5302 151.2 28.8074C150.512 29.0976 149.795 29.3137 149.061 29.4521C151.111 28.5027 151.406 26.656 151.437 26.408C151.558 25.4035 151.331 24.4816 151.331 24.4816L151.337 24.4801C150.259 20.3411 147.219 19.0687 144.822 19.0687C142.161 19.0687 140.814 19.8711 140.563 20.0364H140.56L140.471 20.0517L140.465 20.0533C142.576 20.6551 142.838 22.6105 142.838 22.6105C141.686 19.9553 138.683 20.577 138.236 20.7286C137.799 20.9259 137.387 21.1731 137.007 21.4651C136.886 21.5593 136.77 21.6595 136.659 21.7652C136.053 22.3425 135.712 22.9994 135.687 23.6563C135.655 23.8743 135.64 24.0944 135.641 24.3147L135.634 24.3178C135.297 24.4478 134.927 24.4586 134.584 24.3484C134.419 24.2906 134.269 24.1979 134.143 24.0766C134.017 23.9554 133.918 23.8083 133.854 23.6456C133.782 23.4722 133.751 23.2845 133.763 23.097C133.775 22.9096 133.83 22.7274 133.923 22.5645C134.122 22.2276 134.546 21.9949 135.029 22.0209C134.601 21.7851 133.981 21.8739 133.573 22.2644C133.366 22.4642 133.221 22.7194 133.155 22.9994C133.085 23.272 133.079 23.5706 133.146 23.8554C133.273 24.425 133.697 24.938 134.257 25.1738C134.768 25.3881 135.332 25.3989 135.851 25.2335L135.918 25.2105L135.972 25.1937L136.024 25.1692C136.35 25.0406 137.055 24.7328 137.437 24.3546C137.789 24.0973 138.185 23.6808 138.185 23.1586C138.185 23.1586 138.337 23.5782 138.757 24.0192L138.816 24.0789C139.148 24.4832 139.622 24.9701 140.252 25.4234C141.124 26.0512 142.298 26.6177 143.824 26.8214C144.318 26.8826 144.758 26.8918 145.152 26.8673C146.196 26.8673 146.468 26.3773 146.468 26.3773C146.468 27.7325 145.183 27.633 145.183 27.633L141.572 27.6866C136.192 27.7677 134.14 29.7338 133.931 32.804C133.743 35.5373 135.271 38.4635 138.9 38.7131C141.294 38.8769 143.382 38.0056 145.076 36.355L145.05 38.9106C148.865 39.1709 151.783 39.3731 151.761 36.9629L151.751 32.5666Z" fill="white"/>
<path fill-rule="evenodd" clip-rule="evenodd" d="M137.111 26.5503C137.121 26.5507 137.131 26.5518 137.14 26.5534L137.186 26.5595C137.248 26.5703 137.327 26.5902 137.416 26.6192C137.416 26.6192 137.702 26.6958 137.737 26.5825C137.768 26.4707 137.798 26.3421 137.645 26.1951C137.537 26.1004 137.405 26.0378 137.263 26.0144L137.199 26.0068C137.027 25.9943 136.856 26.0401 136.714 26.1369C136.638 26.1861 136.572 26.25 136.522 26.325C136.471 26.4 136.436 26.4844 136.418 26.5733C136.602 26.558 136.744 26.5457 136.87 26.5427C136.931 26.5396 136.987 26.5396 137.038 26.5427C137.062 26.5457 137.087 26.5457 137.111 26.5503ZM139.443 26.679L139.451 26.6759C139.51 26.6606 139.564 26.6453 139.614 26.6376C139.639 26.633 139.662 26.6269 139.686 26.6254C139.696 26.624 139.706 26.623 139.717 26.6223L139.763 26.6162C139.864 26.6086 139.965 26.6111 140.065 26.6238C140.189 26.6376 140.33 26.6637 140.512 26.6912C140.502 26.6016 140.473 26.515 140.428 26.4366C140.384 26.3583 140.324 26.2897 140.252 26.2349C140.097 26.1108 139.899 26.0515 139.701 26.0695C139.678 26.0711 139.671 26.0711 139.639 26.0772C139.563 26.0899 139.489 26.1147 139.421 26.1507C139.354 26.1866 139.292 26.2326 139.238 26.287C139.204 26.336 139.1 26.5105 139.201 26.6085C139.302 26.7096 139.415 26.6851 139.443 26.679ZM74.2682 17.8115C74.005 18.006 73.7939 18.1591 73.7755 18.1591C73.7495 18.1591 73.9652 17.8651 74.1855 17.5742L74.0479 17.1638C73.5354 17.8712 72.8852 18.7073 73.0489 18.1591C73.2799 17.3935 73.5782 16.7733 73.7541 16.441C72.9984 14.9986 71.2559 13.3724 71.2559 13.3724C71.2559 13.3724 72.8224 15.2972 72.3803 20.1589V20.1635C72.2151 21.9643 71.7776 24.1647 70.8811 26.8244C71.0616 26.2625 71.9229 23.4434 72.1386 20.1635V20.1589C72.2855 17.9202 72.1325 15.4687 71.2559 13.3724C70.7724 13.6802 70.3655 14.1687 70.0228 14.7459C70.6837 15.7841 71.7194 17.4134 71.3507 17.0045C71.1717 16.8055 70.312 15.7826 69.7658 15.2191C69.1982 16.3568 68.8448 17.712 68.6398 18.7165C68.8953 19.0625 69.3252 19.6413 69.7872 20.1589L69.7903 20.1635C70.2278 20.6535 70.6929 21.0868 71.0631 21.2109C71.7668 21.4452 69.7704 20.8863 68.4685 20.1635C68.4659 20.162 68.4633 20.1605 68.4608 20.1589H68.4058V21.1894L70.237 23.1525L68.4058 21.6641V22.3608C68.7179 22.9733 69.3237 24.0651 69.8775 24.5199C70.4818 25.013 69.1921 24.2887 68.4058 23.4097V23.7237C68.4058 26.1997 67.8137 28.0862 66.6801 28.8748C66.295 29.1423 65.8362 29.2831 65.3675 29.2775H65.3644C63.4949 29.2744 63.3817 27.2869 63.3817 24.6991V20.0088H62.5235C62.5226 20.0105 62.5216 20.012 62.5204 20.0134C62.2389 20.0134 61.9727 20.015 61.7173 20.018C61.312 21.0731 60.6041 21.9846 59.6826 22.638C58.9865 23.1326 57.7045 23.84 56.9334 24.2535V28.8687C56.9334 29.0846 56.9411 29.2959 56.9533 29.5026V29.5302C56.9686 29.7323 56.987 29.9283 57.0114 30.1212L57.016 30.158C57.0405 30.3478 57.0726 30.5301 57.1093 30.7092L57.1185 30.7521C57.1552 30.9282 57.1981 31.0982 57.247 31.2635L57.2608 31.3095C57.3098 31.4733 57.3648 31.631 57.4245 31.7842L57.4429 31.8301C57.5675 32.1382 57.7207 32.434 57.9003 32.7136L57.9293 32.758C58.0135 32.8836 58.1022 33.0046 58.1971 33.1209L58.2307 33.1607C58.4326 33.402 58.6604 33.6202 58.91 33.8115L58.9528 33.8437C59.2109 34.0362 59.4889 34.2005 59.782 34.3337L59.8279 34.3536C59.9732 34.4164 60.1216 34.4746 60.2761 34.5251L60.322 34.5404C60.4811 34.5909 60.6433 34.6353 60.8101 34.6721L60.8544 34.6813C61.0258 34.718 61.2002 34.7487 61.3837 34.7732L61.4189 34.7762C61.6025 34.7992 61.7892 34.8145 61.985 34.8222L62.0003 34.8237C62.4092 34.8395 62.8187 34.8262 63.2257 34.7839C65.2803 34.5649 67.0549 33.5665 68.3996 31.5652V31.5728L68.4012 31.5698L68.4058 31.5652V38.6947H69.082C74.1213 38.6886 74.8495 38.5492 74.8495 35.2417V21.4834C74.0769 22.2736 72.9112 23.4358 73.3625 22.7927C73.7373 22.2567 74.3951 21.1221 74.848 20.3228V20.1589C74.848 19.4362 74.5573 18.6399 74.2666 17.8115" fill="white"/>
</svg>
